<svg width="100%" height="100%" viewBox="0 0 428 99" fill="none" xmlns="http://www.w3.org/2000/svg">
<path d="M124.401 60.5205C119.626 60.64 114.926 59.3298 110.919 56.7619C107.179 54.321 104.403 50.6823 103.057 46.4572L111.243 43.4755C112.379 46.0695 114.236 48.292 116.598 49.8856C118.999 51.4757 121.835 52.2994 124.725 52.2457C127.5 52.39 130.238 51.5724 132.468 49.9342C133.438 49.1282 134.204 48.1098 134.705 46.9599C135.207 45.8101 135.43 44.5605 135.357 43.3104C135.369 42.1464 135.096 40.9968 134.561 39.9597C134.097 39.0312 133.491 38.1794 132.763 37.4345C131.84 36.6042 130.792 35.9196 129.658 35.4047C128.262 34.7151 127.113 34.1906 126.189 33.8313C125.265 33.4719 123.909 32.9863 122.131 32.3842C119.89 31.6072 118.2 31.005 117.099 30.5583C115.588 29.9264 114.121 29.1964 112.707 28.373C111.18 27.5746 109.793 26.5383 108.599 25.304C107.571 24.0967 106.742 22.7364 106.143 21.2734C104.985 18.4912 104.742 15.4198 105.447 12.4935C106.153 9.56714 107.771 6.93404 110.073 4.96655C113.428 2.0464 117.977 0.586334 123.723 0.586334C128.531 0.586334 132.481 1.63202 135.573 3.72338C138.584 5.69855 140.793 8.65952 141.813 12.0856L133.775 14.7371C132.956 12.9398 131.579 11.4467 129.845 10.4734C127.763 9.34051 125.409 8.78983 123.035 8.88058C120.7 8.74654 118.387 9.38562 116.461 10.6968C115.674 11.3001 115.048 12.0825 114.634 12.9771C114.219 13.8717 114.03 14.8521 114.083 15.8345C114.09 16.587 114.257 17.3296 114.574 18.014C114.89 18.6984 115.349 19.3093 115.92 19.8068C117.035 20.887 118.341 21.756 119.772 22.3709C121.109 22.9245 123.153 23.6626 125.884 24.6047C127.555 25.2165 128.832 25.6633 129.609 25.9741C130.385 26.2849 131.574 26.7802 133.166 27.4989C134.419 28.0489 135.625 28.6985 136.772 29.4414C137.799 30.1728 138.783 30.9608 139.72 31.8014C140.728 32.6684 141.59 33.6879 142.275 34.8219C142.927 36.0003 143.432 37.2526 143.779 38.5514C144.208 40.072 144.419 41.6444 144.408 43.223C144.408 48.636 142.537 52.8705 138.797 55.9266C135.056 58.9827 130.257 60.514 124.401 60.5205ZM178.073 59.5493L157.978 1.59641H167.353L180.668 41.9799C181.402 44.1536 182.019 46.3647 182.515 48.6036C183.002 46.3636 183.616 44.1523 184.353 41.9799L197.501 1.59641H206.797L186.78 59.5298L178.073 59.5493ZM224.543 59.5493V1.59641H260.902V9.70612H233.26V25.5953H251.095V33.705H233.26V51.3813H262.739V59.491L224.543 59.5493ZM284.918 59.5493V1.59641H293.634V51.255H322.269V59.5298L284.918 59.5493ZM355.09 9.89065V59.5298H346.383V9.87122H329.806V1.59641H371.647V9.87122L355.09 9.89065ZM389.679 59.5493V1.59641H426.038V9.70612H398.386V25.5953H416.221V33.705H398.386V51.3813H427.865V59.491L389.679 59.5493Z" fill="#4A4A55"/>
<path d="M114.141 86.4419H107.054V92.2368H115.286V94H104.898V77.6484H115.174V79.4229H107.054V84.6787H114.141V86.4419ZM129.363 91.1362L134.035 77.6484H136.394L130.329 94H128.42L122.367 77.6484H124.714L129.363 91.1362ZM153.817 86.4419H146.731V92.2368H154.963V94H144.575V77.6484H154.851V79.4229H146.731V84.6787H153.817V86.4419ZM176.194 94H174.026L165.794 81.3994V94H163.627V77.6484H165.794L174.049 90.3052V77.6484H176.194V94ZM196.964 79.4229H191.709V94H189.564V79.4229H184.319V77.6484H196.964V79.4229ZM222.603 87.3853H218.762V94H216.595V77.6484H222.008C223.85 77.6484 225.265 78.0677 226.253 78.9062C227.249 79.7448 227.747 80.9652 227.747 82.5674C227.747 83.5856 227.47 84.4728 226.916 85.229C226.369 85.9852 225.605 86.5505 224.625 86.9248L228.465 93.8652V94H226.152L222.603 87.3853ZM218.762 85.6221H222.075C223.146 85.6221 223.996 85.3451 224.625 84.791C225.261 84.237 225.579 83.4958 225.579 82.5674C225.579 81.5566 225.276 80.7817 224.67 80.2427C224.071 79.7036 223.202 79.4303 222.064 79.4229H218.762V85.6221ZM249.337 86.3521C249.337 87.9543 249.068 89.3543 248.528 90.5522C247.989 91.7427 247.226 92.6523 246.237 93.2812C245.249 93.9102 244.096 94.2246 242.778 94.2246C241.491 94.2246 240.349 93.9102 239.353 93.2812C238.357 92.6449 237.582 91.7427 237.028 90.5747C236.482 89.3993 236.201 88.0404 236.186 86.498V85.3188C236.186 83.7466 236.459 82.3577 237.006 81.1523C237.553 79.9469 238.324 79.026 239.319 78.3896C240.323 77.7458 241.468 77.4238 242.756 77.4238C244.066 77.4238 245.219 77.742 246.215 78.3784C247.218 79.0073 247.989 79.9245 248.528 81.1299C249.068 82.3278 249.337 83.7241 249.337 85.3188V86.3521ZM247.192 85.2964C247.192 83.3573 246.803 81.8711 246.024 80.8379C245.245 79.7972 244.156 79.2769 242.756 79.2769C241.393 79.2769 240.319 79.7972 239.533 80.8379C238.754 81.8711 238.354 83.3086 238.331 85.1504V86.3521C238.331 88.2313 238.724 89.71 239.51 90.7881C240.304 91.8587 241.393 92.394 242.778 92.394C244.171 92.394 245.249 91.8887 246.013 90.8779C246.777 89.8597 247.17 88.4035 247.192 86.5093V85.2964ZM270.063 77.6484V88.7666C270.055 90.3089 269.569 91.5705 268.603 92.5513C267.644 93.5321 266.342 94.0824 264.694 94.2021L264.122 94.2246C262.332 94.2246 260.906 93.7417 259.843 92.7759C258.78 91.8101 258.241 90.4811 258.226 88.7891V77.6484H260.36V88.7217C260.36 89.9046 260.685 90.8255 261.337 91.4844C261.988 92.1357 262.916 92.4614 264.122 92.4614C265.342 92.4614 266.274 92.1357 266.918 91.4844C267.569 90.833 267.895 89.9159 267.895 88.7329V77.6484H270.063ZM290.743 79.4229H285.487V94H283.342V79.4229H278.098V77.6484H290.743V79.4229ZM308.392 86.4419H301.305V92.2368H309.537V94H299.149V77.6484H309.425V79.4229H301.305V84.6787H308.392V86.4419ZM324.198 87.3853H320.358V94H318.19V77.6484H323.603C325.445 77.6484 326.86 78.0677 327.848 78.9062C328.844 79.7448 329.342 80.9652 329.342 82.5674C329.342 83.5856 329.065 84.4728 328.511 85.229C327.964 85.9852 327.201 86.5505 326.22 86.9248L330.061 93.8652V94H327.747L324.198 87.3853ZM320.358 85.6221H323.671C324.741 85.6221 325.591 85.3451 326.22 84.791C326.856 84.237 327.175 83.4958 327.175 82.5674C327.175 81.5566 326.871 80.7817 326.265 80.2427C325.666 79.7036 324.797 79.4303 323.659 79.4229H320.358V85.6221Z" fill="#4A4A55"/>
<path d="M78.0648 13.0989C68.7601 -0.0590602 50.3832 -3.9587 37.0972 4.40652L13.7638 19.1031C10.6145 21.0581 7.91229 23.6405 5.82955 26.6856C3.74682 29.7308 2.32936 33.1716 1.66765 36.7886C0.551859 42.8933 1.52786 49.1915 4.44118 54.6863C2.4445 57.68 1.08391 61.0434 0.441934 64.5724C-0.224495 68.2693 -0.136438 72.0606 0.700926 75.7234C1.53829 79.3862 3.10806 82.8465 5.31797 85.9011C14.6227 99.0591 32.9995 102.959 46.2856 94.5935L69.619 79.9588C72.7646 77.9997 75.4641 75.4161 77.5463 72.3717C79.6286 69.3273 81.0482 65.8885 81.7151 62.2733C82.8268 56.1705 81.8477 49.8755 78.9326 44.3845C80.9283 41.3893 82.2916 38.0267 82.9408 34.4983C83.6052 30.8014 83.5162 27.0105 82.6789 23.348C81.8416 19.6855 80.2729 16.2251 78.0648 13.1697" fill="#FF3E00"/>
<path d="M34.8157 87.1745C31.1423 88.1166 27.2649 87.9223 23.7067 86.6178C20.1486 85.3132 17.081 82.9612 14.9179 79.8792C13.5898 78.0429 12.6467 75.9624 12.1443 73.7604C11.6419 71.5584 11.5902 69.2793 11.9923 67.0573C12.1243 66.3345 12.3097 65.6222 12.547 64.9262L12.9854 63.5998L14.1843 64.4841C16.94 66.4725 20.0164 67.9853 23.2832 68.9585L24.1779 69.2149L24.0974 70.0992C24.0113 71.3116 24.3562 72.5157 25.0726 73.5036C25.7253 74.4308 26.6497 75.138 27.7215 75.5301C28.7932 75.9222 29.9608 75.9803 31.067 75.6966C31.5728 75.5623 32.0553 75.3536 32.4984 75.0776L55.796 60.381C56.3682 60.0252 56.8588 59.555 57.2363 59.0007C57.6138 58.4464 57.8698 57.8202 57.988 57.1623C58.1073 56.4917 58.0896 55.8044 57.9359 55.1408C57.7822 54.4771 57.4958 53.8505 57.0933 53.298C56.4406 52.3709 55.5162 51.6636 54.4444 51.2715C53.3727 50.8794 52.2051 50.8213 51.0989 51.105C50.5925 51.2377 50.1097 51.4465 49.6674 51.724L40.7206 57.3391C39.2573 58.2562 37.6615 58.9479 35.9877 59.3906C32.3204 60.3271 28.4508 60.1308 24.8998 58.8281C21.3488 57.5254 18.2867 55.1788 16.1257 52.1042C14.8016 50.2661 13.8623 48.185 13.363 45.9832C12.8637 43.7814 12.8144 41.5032 13.218 39.2823C13.6131 37.1024 14.4641 35.028 15.7166 33.1917C16.969 31.3554 18.5954 29.7976 20.4918 28.618L43.8609 13.9213C45.3156 13.0062 46.9023 12.3144 48.567 11.8698C52.239 10.9271 56.1154 11.1211 59.6723 12.4258C63.2292 13.7305 66.2951 16.0829 68.4558 19.1651C69.7855 21.0008 70.7301 23.0809 71.2341 25.283C71.7381 27.485 71.7912 29.7644 71.3904 31.987C71.2508 32.714 71.0656 33.4316 70.8357 34.1358L70.3883 35.4622L69.1984 34.578C66.4371 32.5744 63.3512 31.0494 60.0726 30.0682L59.1779 29.8117L59.2585 28.9275C59.3618 27.709 59.0259 26.4937 58.3101 25.4965C57.6533 24.5853 56.7314 23.8933 55.667 23.5126C54.6026 23.1319 53.4462 23.0806 52.3515 23.3654C51.8451 23.4981 51.3623 23.7068 50.92 23.9844L27.5777 38.6545C27.0076 39.0106 26.5184 39.4797 26.1411 40.0322C25.7638 40.5847 25.5066 41.2086 25.3857 41.8644C25.2687 42.5364 25.2876 43.2246 25.4411 43.8894C25.5947 44.5541 25.8799 45.1822 26.2804 45.7375C26.9301 46.6562 27.8471 47.358 28.9097 47.7496C29.9723 48.1413 31.1303 48.2044 32.23 47.9305C32.7352 47.7942 33.2175 47.5857 33.6615 47.3115L42.6084 41.7052C44.0706 40.7781 45.6705 40.0829 47.3502 39.6448C51.0213 38.6999 54.8975 38.892 58.4546 40.1951C62.0117 41.4983 65.078 43.8496 67.2391 46.9312C68.5678 48.7674 69.5119 50.8476 70.0158 53.0495C70.5198 55.2513 70.5734 57.5305 70.1736 59.7532C69.7785 61.9331 68.9275 64.0075 67.6751 65.8438C66.4226 67.6801 64.7962 69.2379 62.8998 70.4175L39.5575 85.1141C38.0915 86.0341 36.4927 86.7288 34.8157 87.1745" fill="white"/>
</svg>
